<?xml version="1.0" standalone="no"?>
<!DOCTYPE svg PUBLIC "-//W3C//DTD SVG 20010904//EN"
 "http://www.w3.org/TR/2001/REC-SVG-20010904/DTD/svg10.dtd">
<svg version="1.0" xmlns="http://www.w3.org/2000/svg"
 width="488.000000pt" height="488.000000pt" viewBox="0 0 488.000000 488.000000"
 preserveAspectRatio="xMidYMid meet">
<metadata>
Created by potrace 1.14, written by Peter Selinger 2001-2017
</metadata>
<g transform="translate(0.000000,488.000000) scale(0.100000,-0.100000)"
fill="#000000" stroke="none">
<path d="M2225 4852 c-2 -2 -17 -6 -32 -7 -97 -11 -136 -16 -143 -20 -4 -3
-23 -7 -43 -9 -19 -3 -63 -12 -98 -21 -35 -9 -71 -18 -79 -20 -93 -19 -282
-87 -395 -140 -40 -19 -76 -35 -79 -35 -3 0 -51 -27 -107 -60 -55 -33 -103
-60 -105 -60 -3 0 -10 -5 -17 -10 -19 -16 -82 -63 -107 -80 -108 -73 -281
-231 -399 -364 -92 -104 -281 -376 -281 -404 0 -6 -4 -12 -8 -14 -15 -6 -164
-334 -178 -390 -2 -10 -6 -26 -8 -35 -2 -10 -11 -43 -20 -74 -9 -31 -19 -66
-21 -78 -2 -13 -7 -31 -10 -41 -3 -10 -8 -28 -10 -39 -3 -12 -7 -31 -10 -43
-3 -13 -7 -35 -10 -50 -3 -16 -8 -43 -11 -60 -17 -91 -23 -186 -24 -353 0
-184 6 -276 24 -372 3 -18 8 -45 11 -61 7 -40 53 -221 59 -230 3 -5 7 -19 10
-33 12 -60 17 -75 35 -128 75 -216 172 -394 356 -654 42 -59 86 -84 128 -73
22 5 22 3 23 -112 0 -64 3 -128 5 -142 8 -40 40 -100 54 -100 7 0 15 -4 17 -9
3 -10 177 -59 248 -69 95 -14 279 -5 314 15 6 4 -1 -6 -15 -21 -34 -34 -41
-72 -22 -113 11 -24 34 -41 101 -74 94 -45 264 -117 297 -124 11 -2 79 -20
152 -39 128 -35 167 -44 208 -51 11 -2 36 -6 55 -10 76 -15 114 -17 350 -18
217 -1 349 5 369 17 3 2 24 7 46 10 22 4 47 8 55 11 8 2 26 6 40 9 14 3 68 16
120 31 52 14 102 28 110 30 8 2 15 4 15 5 0 1 10 3 23 6 67 12 344 138 454
206 43 27 80 48 83 48 3 0 18 11 33 25 15 14 32 25 39 25 6 0 13 4 15 8 2 5
28 26 58 48 30 21 60 43 66 49 6 6 31 27 54 46 56 45 216 204 260 259 19 24
40 48 45 54 99 108 246 349 327 531 14 33 38 86 52 119 14 32 28 70 31 84 2
14 16 62 29 106 14 45 27 92 29 106 3 14 10 43 15 65 6 22 13 51 16 65 2 14 7
36 10 50 39 165 39 625 1 790 -3 14 -8 37 -10 52 -2 15 -9 46 -15 70 -7 24
-13 50 -15 58 -6 30 -27 106 -42 150 -8 25 -17 56 -20 70 -2 14 -15 50 -29 80
-50 113 -113 113 -232 1 -29 -27 -71 -65 -93 -83 -23 -18 -49 -50 -60 -70 -19
-36 -19 -37 6 -102 14 -36 22 -66 20 -66 -3 0 -1 -9 5 -20 11 -21 36 -138 45
-215 2 -16 6 -50 10 -75 19 -124 18 -360 -1 -490 -2 -19 -6 -48 -8 -65 -2 -16
-7 -43 -10 -60 -3 -16 -8 -48 -11 -70 -7 -44 -63 -217 -91 -280 -10 -22 -18
-42 -18 -45 -3 -19 -42 -100 -48 -100 -5 0 -8 6 -7 12 1 7 1 18 0 25 -1 16
-103 119 -156 158 -41 31 -67 52 -119 97 -17 15 -34 28 -38 28 -4 0 -17 10
-30 23 -35 34 -81 63 -98 62 -8 -1 -24 -3 -36 -3 -11 -1 -36 -17 -56 -34 -65
-60 -88 -78 -97 -78 -5 0 -11 -4 -13 -8 -5 -12 -114 -76 -148 -87 -28 -9 -99
-28 -115 -31 -11 -2 -33 -7 -50 -11 -41 -8 -222 -8 -265 1 -19 4 -48 9 -65 11
-16 3 -61 20 -100 39 -116 57 -180 118 -282 263 -45 66 -76 99 -97 108 -23 9
-111 12 -326 11 -266 -1 -298 -3 -321 -19 -24 -16 -40 -44 -42 -72 -1 -18 25
-98 49 -153 13 -29 24 -55 24 -57 0 -3 18 -35 40 -71 22 -36 40 -68 40 -70 0
-17 113 -156 189 -233 101 -100 195 -170 321 -238 80 -43 213 -101 248 -108
11 -2 30 -9 41 -15 12 -6 21 -8 21 -6 0 3 17 -1 38 -8 47 -16 96 -19 307 -20
276 -1 399 13 545 63 119 41 317 144 368 191 12 11 26 20 32 20 5 0 10 4 10 8
0 4 15 16 33 27 17 10 34 21 37 24 3 3 23 22 44 41 l38 35 -23 -40 c-12 -22
-28 -51 -35 -65 -8 -14 -25 -38 -39 -54 -14 -16 -25 -35 -25 -42 0 -7 -3 -14
-8 -16 -4 -2 -18 -16 -31 -33 -78 -102 -215 -246 -301 -317 -25 -21 -56 -46
-69 -58 -13 -11 -27 -20 -31 -20 -3 0 -15 -8 -26 -18 -26 -25 -168 -112 -182
-112 -5 0 -12 -3 -14 -8 -7 -17 -276 -139 -348 -158 -8 -2 -55 -15 -104 -29
-50 -13 -113 -27 -140 -30 -28 -3 -64 -7 -81 -10 -159 -24 -378 -24 -550 -1
-16 2 -51 7 -77 10 -26 3 -64 10 -85 15 -21 6 -49 12 -63 15 -14 2 -36 9 -50
14 -14 5 -28 10 -33 10 -10 1 -113 39 -152 56 -16 7 -51 21 -77 31 l-47 17 23
37 c30 49 67 130 73 160 2 13 6 28 9 33 5 7 8 30 21 128 11 82 10 1893 -1
1925 -28 84 -113 90 -197 13 -24 -21 -57 -49 -72 -61 -16 -12 -41 -33 -56 -47
-46 -41 -83 -72 -141 -120 -30 -25 -61 -52 -70 -60 -9 -8 -39 -35 -68 -59 -36
-31 -53 -54 -57 -75 -2 -17 -7 -321 -9 -676 -5 -656 -7 -748 -20 -768 -6 -11
-136 -18 -136 -8 0 2 7 17 15 32 8 16 15 38 15 50 0 18 -40 89 -59 104 -10 8
-96 141 -127 195 -76 136 -181 383 -198 468 -3 12 -12 54 -20 93 -15 67 -19
100 -32 234 -13 142 -3 418 21 562 11 65 56 231 74 272 10 22 33 79 51 126 18
47 42 101 53 120 11 19 34 60 50 90 29 52 133 209 146 220 3 3 24 28 46 55 65
82 207 221 312 306 37 30 199 138 219 146 10 4 49 25 86 46 151 86 428 177
588 193 19 1 46 5 60 8 94 21 413 21 510 1 14 -3 43 -7 65 -10 93 -10 239 -42
290 -64 11 -5 70 -28 130 -52 61 -24 137 -58 170 -77 33 -19 85 -48 115 -64
30 -17 64 -39 76 -49 11 -11 25 -19 31 -19 6 0 13 -3 15 -8 2 -4 28 -25 58
-47 52 -38 107 -85 84 -72 -15 9 -58 25 -64 24 -3 0 -16 5 -29 12 -24 13 -176
59 -221 68 -14 2 -43 8 -65 12 -77 16 -317 20 -440 8 -130 -12 -330 -73 -449
-136 -112 -60 -141 -76 -146 -81 -3 -3 -39 -31 -80 -62 -41 -32 -109 -93 -150
-135 -77 -80 -87 -93 -130 -153 -13 -19 -28 -39 -32 -45 -5 -5 -24 -39 -43
-75 -171 -320 -200 -448 -109 -486 50 -21 594 -20 635 1 19 11 40 41 70 102
43 90 88 165 102 171 4 2 7 8 7 14 0 9 101 111 131 133 69 49 106 69 161 89
57 19 81 22 213 20 159 -2 255 -19 329 -56 59 -30 196 -120 229 -152 29 -27
75 -53 92 -52 19 2 75 28 75 36 0 4 24 26 53 48 28 21 64 50 78 63 14 13 45
40 69 59 24 19 54 44 66 55 13 11 39 34 59 50 46 37 65 80 53 117 -12 33 -205
209 -250 226 -15 6 -10 13 27 42 25 19 81 69 126 111 76 71 82 78 83 118 1 41
-3 46 -84 123 -119 112 -129 121 -185 158 -27 19 -56 40 -63 47 -7 7 -26 20
-42 30 -17 9 -30 21 -30 25 0 4 -4 8 -10 8 -5 0 -33 15 -62 33 -107 65 -179
102 -324 165 -93 40 -252 93 -324 107 -8 2 -64 15 -125 30 -60 14 -128 29
-150 31 -22 3 -56 8 -75 11 -43 6 -478 11 -485 5z"/>
<path d="M1096 3276 c-19 -10 -37 -30 -41 -43 -3 -14 -5 -95 -4 -181 1 -180
11 -213 70 -244 33 -17 39 -17 71 -3 20 8 42 20 50 28 7 7 31 26 53 42 22 17
45 35 51 40 6 6 32 28 58 50 127 108 192 169 203 191 6 10 9 30 8 44 -2 14 -4
28 -4 32 -1 4 -19 20 -42 35 -40 26 -41 27 -240 28 -181 1 -202 -1 -233 -19z"/>
</g>
</svg>
